/* XPM */
static char *w3mtmp2311-2[] = {
/* width height num_colors chars_per_pixel */
"    50    61      249            2",
/* colors */
".. c #5c0224",
".# c #b48294",
".a c #7c4254",
".b c #9c0330",
".c c #ccc2c4",
".d c #9c2446",
".e c #d4839f",
".f c #bc4268",
".g c #5c263c",
".h c #d4a6b4",
".i c #c4023b",
".j c #ece5e7",
".k c #9c143d",
".l c #740428",
".m c #d4f2ec",
".n c #846a74",
".o c #7c1338",
".p c #d4b4c4",
".q c #dc95a9",
".r c #7c2440",
".s c #b40338",
".t c #9c3458",
".u c #f4628c",
".v c #944264",
".w c #f4c6d4",
".x c #ecf5f4",
".y c #f4d5df",
".z c #b41343",
".A c #7c364c",
".B c #8c022b",
".C c #a45472",
".D c #aca6ac",
".E c #e44c78",
".F c #bc768c",
".G c #ecb2c4",
".H c #8c133c",
".I c #9c0c39",
".J c #ec82a4",
".K c #f4e5ec",
".L c #ecfdfa",
".M c #ec92a4",
".N c #b72554",
".O c #eca6bf",
".P c #8c2447",
".Q c #c7124c",
".R c #9c1c43",
".S c #bc5577",
".T c #b7375c",
".U c #bc8599",
".V c #b40c40",
".W c #ecbecc",
".X c #ecaec0",
".Y c #d48ea8",
".Z c #ac657f",
".0 c #b14364",
".1 c #f1dde4",
".2 c #f4ebee",
".3 c #9c2b4e",
".4 c #d40244",
".5 c #8c0b37",
".6 c #ac0437",
".7 c #a13c5c",
".8 c #ecccd4",
".9 c #8c1c3f",
"#. c #c892a4",
"## c #6c3244",
"#a c #780c34",
"#b c #e47498",
"#c c #ec9eb8",
"#d c #8c2c4c",
"#e c #c40c43",
"#f c #d86688",
"#g c #ac546e",
"#h c #fcfdfc",
"#i c #dc527c",
"#j c #944a64",
"#k c #fcf4fa",
"#l c #fc749c",
"#m c #ac1343",
"#n c #771e39",
"#o c #b41c4a",
"#p c #c45c80",
"#q c #fccce2",
"#r c #54122c",
"#s c #84435c",
"#t c #a40332",
"#u c #742440",
"#v c #c16e89",
"#w c #bc043a",
"#x c #fcb3cb",
"#y c #ac0c3d",
"#z c #ac1a44",
"#A c #fcadc8",
"#B c #e482a4",
"#C c #e4fcf7",
"#D c #d8bec8",
"#E c #7c2a44",
"#F c #fcd4ed",
"#G c #923254",
"#H c #940430",
"#I c #fce4f5",
"#J c #f4fdfc",
"#K c #fca4c3",
"#L c #942346",
"#M c #a41d47",
"#N c #bc8e9c",
"#O c #bc0d42",
"#P c #fcbcd5",
"#Q c #e48ba7",
"#R c #a46d82",
"#S c #fcdced",
"#T c #fcecf7",
"#U c #ac2b54",
"#V c #fc9dc0",
"#W c #ac5a74",
"#X c #ac254f",
"#Y c #dc849f",
"#Z c #cc0342",
"#0 c #dceee8",
"#1 c #a41541",
"#2 c #84042c",
"#3 c #ac365c",
"#4 c #c8aeb8",
"#5 c #e85884",
"#6 c #dcd2d4",
"#7 c #9c9294",
"#8 c #6c565c",
"#9 c #5c162c",
"a. c #f45a8c",
"a# c #847a7c",
"aa c #640a2c",
"ab c #dcaec4",
"ac c #ec8eac",
"ad c #a47a8c",
"ae c #945e74",
"af c #bcb2b4",
"ag c #c17d94",
"ah c #b42e58",
"ai c #c19eac",
"aj c #fc95bc",
"ak c #cc4870",
"al c #ac4b69",
"am c #6c3e50",
"an c #e47c98",
"ao c #712e47",
"ap c #d80c4c",
"aq c #d47a9c",
"ar c #d45e84",
"as c #f47a9c",
"at c #8c4c64",
"au c #8c3a58",
"av c #641c34",
"aw c #e4b3c4",
"ax c #e49cb4",
"ay c #e4f5f1",
"az c #a44260",
"aA c #bcaab4",
"aB c #cc567c",
"aC c #cc8298",
"aD c #ac3d5e",
"aE c #b4768c",
"aF c #a44c69",
"aG c #841a3c",
"aH c #cc6d8c",
"aI c #e4bacc",
"aJ c #cc8a9c",
"aK c #b46a84",
"aL c #ececec",
"aM c #ac969c",
"aN c #fc8eac",
"aO c #b47c90",
"aP c #c42a5c",
"aQ c #cc9ca8",
"aR c #e4a2b4",
"aS c #cc728c",
"aT c #c42254",
"aU c #840b34",
"aV c #cc7a94",
"aW c #c44a74",
"aX c #dc6e94",
"aY c #8c727c",
"aZ c #e4dadc",
"a0 c #642a3c",
"a1 c #c41a4c",
"a2 c #b43e5c",
"a3 c #4c1a2c",
"a4 c #fcb5d6",
"a5 c #e492ac",
"a6 c #842547",
"a7 c #fc669c",
"a8 c #bc1446",
"a9 c #94133a",
"b. c #940d36",
"b# c #f4ccd8",
"ba c #cc0b47",
"bb c #b44a6c",
"bc c #ec7ea4",
"bd c #7c4a5c",
"be c #a4224c",
"bf c #c4466c",
"bg c #c46280",
"bh c #7c022c",
"bi c #dcf6f4",
"bj c #84143a",
"bk c #a43358",
"bl c #9c455e",
"bm c #fcc5da",
"bn c #f4f5f6",
"bo c #fcd4e2",
"bp c #843a54",
"bq c #ec4a7c",
"br c #f4b3c9",
"bs c #a40b3b",
"bt c #f485a9",
"bu c #fce4eb",
"bv c #f4a4c0",
"bw c #c45474",
"bx c #f4bbcd",
"by c #f4acc1",
"bz c #b46684",
"bA c #a42b50",
"bB c #941b41",
"bC c #74364c",
"bD c #ec7294",
"bE c #dc7397",
"bF c #f49bb7",
"bG c #942c4e",
"bH c #b45274",
"bI c #bc1a4c",
"bJ c #cc5c84",
"bK c #8c465f",
"bL c #dc9eb0",
"bM c #842c4c",
"bN c #c48aa0",
"bO c #ac6a84",
"bP c #b45d77",
"bQ c #641234",
"bR c #fc5e94",
"bS c #6c0e34",
"bT c #e4aabc",
"bU c #dc7c98",
"bV c #fc7da1",
"bW c #943c58",
"bX c #64243c",
"bY c #c40544",
"bZ c #dc96b4",
"b0 c #b40644",
"b1 c #8c0634",
"b2 c #b4a8ac",
/* pixels */
"#h#h#k#h#h#h#h#h#h#hbn#J#h#h#h#k#kbubu#q#VajbV.ua4#lbD#Abmbo#T#T#k#h#J#J#J#J#h#k#T#h#h.x#J#J#h#h#h#h",
"#h#h#h#k#h#h#h#h#h#h#h#h#k.2#k#k#kbraC.7.ob..I.b#t.bahaB.0bl.FbLbobu#h#k#h#h#kbu#k#k#h.L.L#J#k#h#h#h",
"#h#h#h#h#h#h#h#h.L#h#h#T#T#kboa5bbbe.R.I.b.z#O.Q.Q.6.V.z#H#2.kbA.3aH#xbo#S#S#T#k#k#h.L.L#J#h#k#k#h#h",
"#h#h#h#h#h#h#h#h#hbn#T#k#T#Abg#U.z.6.s.V#w#w.6.6.Q.s.6.Va8a1.z.b#H.I.dbk.taFa5#I#T#h#J#C#J#h#h#k#h#h",
"#h#h#h#h#h#h#h#hbn#h#k#q#YbAb..V.i.i.i.i#w.s.6a8#t#y.V.6#t.6.s#w#e.s.6.zbs.Ba9.7brbu#h#J.Lbn#k#h#h#h",
"#J#J#h#h#h#h#h#h#hbubr#g.H.I.6.s#Z#Zba#w.V#1#H.Ra9a9.k.kbs.z.z.s.s#w#O#e#O.V#tb..7.Ybo#h#h#h#k#k#h#h",
"#J#J#J#J#h#h#h#T#T#YbGb.#m.6#w#e.s#t#Hb1bk.S#WaKbybyby#A#x#VaXbf.kbs#t#t.6#wbYb0#HbeaSbx#k#h#h#h#h#h",
"#J#J#J#h#h#h#T#I#Q.T#H#t#O#w#w.zb..9bG#gby#Ibu#T#T#k#k#T#T#Ibu#Ibmbt.T#1.6.s#w#Z.Q#tb.bgbm#T#J#J#h#h",
".x#h#J.x#h#k#I#Vb1#y.s#w#e.6.ba9#n##aEbo#T#k#h#h#h#h#h#h#h#h#h#kbu#Sbo#Q#L#H.V#w.iap.6.baq#S#k#J#h#h",
"#h#J#h#h#T#T#QbB#y#e.i#wa1.b#M#Q#S.ybu#h#k#k#h#J#J#J#J.L#J#J#J#h#k#h#T#S.Oazb1#O.i#Z.i.s#M.e#Tbn#h#h",
"bnbn#k#h#T#qbb.B#O.s.i#e.BbA.Mb##k#h#k#k#T#h#h#k#h#h#h#J#J#J.L#J#h#h#h#k#kawblaU#O.i.4ap.b.d.X#k#h#h",
"#h#h#k#I#Ibg.5#m.s#w.6#mbw.Mb##kbu#T#h#k#h#k#h#T#h#h#h#h#h#J#J#J#J#J#J.xbn#kawbW.B.s.4#Z#w.B#g#S#k#h",
"#h.Kbu#S#P#L#H#1.V.I#Ubc#q#T#k#h#h#h#k#k#k#k#T#k#h#h#h#h#h#h#h#h#hbn#h#h.xbnbubxaG#yba#w#e.V.9ax#T#h",
"aLaf#q#S#b.k#zbs#H#3#K#T#T#k#hbn#h#k#k#k#h#k#k#h#h#k#h#k#h#h#h#h#k#h#h#h#h#k.K#k#Ya9.6ba#w.6.5blbu#h",
"bn#D#SbFbAbs#m.I.3#x#T#T#h.x#0#J#h#h#h#h#h#h#J#h#h#h#h#h#k#h#k#h#k#h#k.K#h#h#Tbu#q.3#H.Q#t#y.T#nbo#k",
"#h.y#SbB#H#m.IbB#Pbu#hbn#J#J#J#J#J#h#J.L#h#h#k#h#k#k#k#k#T#k#k#k#h#T#k#h#k#k#h#TbubU#z.z.sa.#Aau#S#T",
"#kbuak#ta8.IaG#P#T#k#h#h#h#h#h#h#h#h#Jbi#h#k#k#T#S#S#F#Pbybm#S#k#I#h#h#h#k#k#h#h#T#P#U#y.6.NbEaJbo#h",
".8#qaP.6.6.RaV#I#k#h#J#J#h#h#h#h#hbn.L.L#k#I#T#qbN#s#9av#ubXam.n#S#k#k.2bn#h#haL#k#Tar#m.V.bal#q.p#T",
"aQ#Ybs#w.b.R#P#T#k#h#J#h#h#h#h#h#h#k#J#h#k#Tbyata3amadaI#qbm.paA#8b2#k#h#h#J#J#h#k#Tbt#H#y#H.9boai#T",
"aRal.b.Q#H.7#qbu#h#h#h#h#h#h#h#h#h#h#h#T#T#P#sbXai.1#h#I#F#T#k#T#T#6.caZ#k#h#J#J#hbu#Pb.#y#o.3#P#4#T",
"#P.d.V.6a9#Ybu#h#k#h#h#h#h#h#h#h#h.2#k#kbr#jbpbT#I#k#h#k#k#k#h#h#k.j.2#h#h#k#J#h#h#Tboa9bs#z.Rbxb##k",
"aNb1a8.b.0bo#T#h#h#h#h#h#h#h#h#J#h#k#I#T.ZavbZ#T#kbn#J#h#h#h#k#h#h#h#h#T#T#k#J.x.x#h#S.9bs#H.5#F#I#h",
"#i.b.6#t#Y#T#kbn#h#h#h#h#h#h#h#J#h#h#IbT.A.Z#S#I#k#J#J#J#J#h#h#J.x#h#h#k#k#h#h#J.L#h#SaD#z.b.R#P#k#h",
".EaT#t#o#xbu#h#h#h#h#h#h#h#h#J#Jbn#k#T#RbCbm#T#k#h#J#h#J#h#J#J#J#J#J#h#h#k#k#h#J#J#kbo.S.Ibs.RaFbu#h",
"bR.6.6b.bo#h#J#J#h#h#h#h#k#h#J#J#h#T#F.gbO#T#I#h#h#h#h#h#h#h#J#J#J.xbn#haM#k#h#J#J#kbubb.I.IbB#Q#k#h",
"a7.V.V.k#S#h.L#J#h#h#h#h#h#h#h#h#h#T.ha0.U#T#k#k#h#h#h#h#h#h#J#Jay#h#T#h#4.1#h.x#J#hb#.P#X#H.H#q#T#h",
"bR.V#ybAbu#h.L.L#h#h#h#h#k#h#h#h#h#k.#ao#.#T#hbn#h#h#k#k#h#h#h#J.L#hbn#h#T#T#h#hbn#hbmbj#X#2bG#T#k#h",
"bq#tbs.fbu#h#J#J#h#h#h#h#h#h#h#h#h#kaOaoag#S#h#h#h#h#h#k#h#h#h#J#h#h#h.y#h#h.2#h#k#kbm#L.k#2#vbx#k#h",
".E#t.Ibw#T#h#J#J#h#h#h#J#h#h#h#h#J#T.Y#n#W#S#k#h#J#h#h#k#h#h#h#hbn#h.jb2#T#k#k#h#k#T#x.d#2bA#Aai#k#h",
"#5#M.I#fbu#h#h#h#h#h#J#J#h#h#k#h#h.Kbv.o.7#q#k#h#J#h#h#h#h#h#h#h#h#T#7.D#k.2#h#h#k#San.B#H#f#P#D#k#h",
"#5#z.kbEbu#h#h#h#h#h#J.L#h#h#h#h#h.K#PbBbe#K#T#h#J.L#J#J#h#h#h#k#h.1a#.c#h.2#k#k#TaC.tb.#U#K.Gbu#h#h",
"ak.kb..Jbu#hbn#J#h#h#J#J#h#h#k#h#h#T#F.tbjbU#S#k#J.L.L#J#J#h#k#k#I#h.j#k.2#h#k#k.2ao.laha2boaQ#k#k#h",
"#l.B#z.f#S#k#J#C#h#h#h#h#h#h#h#k#h#T#Saua6bQ#q#T#k#J.L#JaLaYbdad#T#k#h#h#J#h#hbubm#naG.J#V#q.W#h#h#h",
"bV.k#1.Tbo#k#J.L#J#h#h#h#h#h#h#h#k#k.W.Yau.7.v#F#k#k.L#hbn.K#k#I#k#k#h#h#h#T#SbmbKbQbM#Abmbu#S#k#h#h",
"as#M.B.R#P#T.x#C#J#h#h#k#h#h#h#h#h#kat#c#KbB.laH#q#T#IaL#h#h#hbn#J#h#k#S#F#qac.P..bWbObu#T#T#h#J#h#h",
"aj.db.bBbF#k.L.L#J#h#k#h#h#h#J#J#h#T.w#WaXaj#UbB.Sa4#T#k#hbnaL#h.L#h#k#SacaDa9bjaFaRaI#k#h#J#h#J#h#h",
"a4.9.I.kaS#T#h.L#J#h#h#k#h#h.L.L#Cbn#T.U.e#L#Vb1bh#L#Ya4.w#I#k#k#T#Ibr#v.9.H#L#G#P#I#k#J.L#J#J#h#h#h",
"#q.P.kb.aD#S#k#J#J#h#h#k#h#h.L#C.L#J#h#T#I#c.P#b#3.9bB#GbPbZbZ.UaO#s.ra6.oa6aSbm#T#k#J#C.L#J.x#h#h#h",
"bubP.d#1#X#x#T#h#h#h#h#h#h#h.L.L.m.L#J#h#k#I#FaFbH.t.9bj.Hbj#a#G.P#abSauagbm#k#k#k.x#J.L#J#h#h#h#h#h",
"#TaJ.9.b#ybVbo#T#h#h#h#h#h#h#J.L#J#J#J.L#h#k#k#IbZ.v.SajajbcbEbtbcac#P#S#I#T#k#h#h#h#h#h#h#h#h#h#h#h",
"#Tbo#Lbs#t.VbA.O#k#Jbnbn#k#h#h#h#h#h#h#h#h#J#h#h#k#SbTaS.CaFbzag#P#F#I#k#k#h#J#J#h#h#k#h#h#h#J#J#h#h",
"#hbubP#H.Q#e#H.7b##h#h#h#k#h#h#h#k#k#h#h#J#J#h#h#k#k#T#I#I#I#I#T#S#T#h#h#J.L#h#h#h#k#k#k#h#h#J#J#h#h",
"#h#k#c.5#O#w.b.H.X#h#h#J#h#T#k#k#k#k#h#h#h#J#h#hbn#h#h#h#h#h#k#h#h#h#J#J#J#J#h#h#h#k#h#k#h#h#h#J#h#h",
"#J#kboaD#t.s#O#Mby#k.jbn#h#T#k#k#h#h#h#h#h#h#h#h#h#h#kbnbn#J#J#J.L.L.L.L#J#h#h#h#h#h#h#h#h#h#h#h#h#h",
"#h#kbu.qa9.zb0#t#B#I#Tbn#h#k#h#h#h#h#h#h#h#h#h#h#h#h#h#h#h#h#h#J#J.L.L#J#h#J#h#J#h#h#h#h#h#h#h#h#h#h",
"#h#k#hbo.7#1.6bsaD#q#k#k#k#h#h.x#J#J#J#h#h#h#h#h#h#h#h#h#hbnbnaL#J#J#h#h#h#h#J#J#J#J#J#h#h#h#k#h#h#h",
"#h#h#h.2a5#L#tbI.Ha5#T#h#k#h#J.L#J#J#h#h#h#h#h#h#h#h#h#J#h#h#h#h#h#h#h#h#h#k#h#h#h#J#h#J#h#h#h#h#h#h",
"#k#h#h.2#kaF#Mbsb.#pbm#k#h#J#C#J#h#h#h#h#h#h#h#h#J#J#J#J#h#h#k#k#h#k#h#k#h#k#h#h#h#h#h#h#h#h#h#h#h#h",
"#k#h#J.x#kbxbk.I.I.5#A#I#k#h#0#J#h#h#h#h#hbn.x#h#J#J#J#h#h#h#h#h#h#h#h#h#h#h#h#h#h#h#h#h#h#h#h#h#h#h",
"#k#h#hbn#h#T.e.d.k#1.3#q#T#k#h.L#h#h#k#h#h#h#J#J#J#J#h#h#h#h#h#h#h#h#h#h#h#h#h#h#h#h#h#h#h#h#h#h#h#h",
"#h#k#h#h#T#k#S#vbj.5b.aWa4#I#h.L#h#J#h#h#J#h#h#J#h#h#h#h#h#h#h#h#h#h#h#h#h#h#h#h#h#h#h#h#h#h#h#h#h#h",
"#h#h#k#h#T#T#k#qaF#a.Nb1ar#S#T#h#J#J#h#h#h#h#h#h#h#h#h#h#h#h#h#h#h#h#h#h#h#h#h#h#h#h#h#h#h#h#h#h#h#h",
".L#J#k#k#h.K#k#k#qbHaU#1.Raj#T#k#hbn#h#h#kbn#h#h#h#h#h#h#h#h#h#h#h#h#h#h#h#h#h#h#h#h#h#h#h#h#h#h#h#h",
"#C#J#h#k#h#k#k#k#k#qalaUaUbkbUbx#k#h#k#k#h#k#k#h#k#h#h#h#h#h#h#h#h#h#h#h#h#h#h#h#h#h#h#h#h#h#h#h#h#h",
".L#J#h#k#h#h#k#k#T#k#q#s#G#aaU#pbx#k#k#T#k#h#T#h#h#h#h#h#h#h#h#h#h#h#h#h#h#h#h#h#h#h#h#h#h#h#h#h#h#h",
"#J#C#J#J#T#k#T#h#h.K#h#I.Z#db1a9.Cbm#T#I#k#k#k#h#h#h#h#h#h#h#h#h#h#h#h#h#h#h#h#h#h#h#h#h#h#h#h#h#h#h",
"#h#J#J#J#J#h#h#h#h.x.L#h#IaC.3.5.P.C#q#S#I#T#k#h#h#J#J#J#J#J#h#h#h#h#h#h#h#h#h#h#h#h#h#h#h#h#h#h#h#h",
"#h#h#J#J#J#h#h#hbn#J.Lay#T#I#KbJ#daa#EbK#.#T#k#h#h#J#h#J#h#h#h#h#h#h#h#h#h#h#h#h#h#h#h#h#h#h#h#h#h#h",
"#k#h#h#J#J.L#J#J.L#J#h#J#k#k#Tbma5aF#nbQ.aab.y#T#k#h#h#h#h#h#h#h#h#h#h#h#h#h#h#h#h#h#h#h#h#h#h#h#h#h",
"#h#h#h#J#J.L.L#J#J#J#k#h#h#T#k#k#S#q.O#W#r.a#R.w#I#T#T#T#k#k#k#h#h#h#h#h#h#h#h#h#h#h#h#h#h#h#h#h#h#h",
"#h#h#h#h#J#J.L#J#h#h#T#k#h#h#h#h#k#T#I#Tbr.O.v.A#sae#N#D#I#h#h#h#h#h#h#h#h#h#h#h#h#h#h#h#h#h#h#h#h#h"
};
