/* XPM */
static char * debian_logo_xpm[] = {
"50 50 18 1",
" 	c None",
".	c #02669A",
"+	c #26537A",
"@	c #314B6F",
"#	c #3E4463",
"$	c #1E5882",
"%	c #0E6290",
"&	c #7E1925",
"*	c #A20202",
"=	c #8A1319",
"-	c #702435",
";	c #8F0E14",
">	c #4F3853",
",	c #185B86",
"'	c #622D41",
")	c #9A0608",
"!	c #125F8C",
"~	c #006699",
".....................+@#$.$%......................",
"...................#&****=-=&;>+..................",
".................>;*************&#@@..............",
"...............+;*******************>,............",
".............,'***********)*)***)****)'...........",
"............,;**)*)*)=>+$%..%+#-)******&%.........",
"...........+))*****;>%..........!')***)*&%........",
"..........,)*)**)&#@..............+;*****-........",
"..........&***)*-..................,;)****>.......",
".........>***))>,.................%.,))****,......",
"......%..))**-!......................@*)***-......",
"......#.#***-.........................'*)*)*!.....",
".......#)))-%.........................,)**+'%.....",
".......=**&%..............%++%.........-)*-$!.....",
".....!@**),.............@&))&=-+.......@***,,.....",
".....+'*))%............>)'$%...#@......%)*)@!.....",
".....!)**>............#)@.%......!......;**$%.....",
".....@*))!...........+)+................&**#......",
".....'**'............&>.................-**#......",
".....'*)#...........$)!.................-**&......",
".....>**+...........'&............#.....-**>......",
".....')*$...........&'............%.....&*;+......",
".....')*............='.................%&*'%......",
".....'*)............&;...........%%.....;*>%......",
".....');............-)!.........!@.....>*;%%......",
".....'*;............#*#..........!....@**>.%......",
".....'))............!;;%....,>#.......>*>$%.......",
".....>**$..........%!>)'.............#)*,.........",
".....#**>..........%#$'*>..........!'*)+..........",
".....+**>...........+@+'*-!.......>=)=$...........",
".....%)*&............%+>#*)'@,,@'&*)'%............",
"......&*)%.............$---))*)**;'$..............",
"......>**>!..............#'@+@#@,.................",
"......+)**),...............,##@,..................",
".......=)*)'......................................",
".......#***>......................................",
"........;*);%.....................................",
"........#*)*+.....................................",
".........&**-.....................................",
".........$)**$....................................",
"..........>)*=....................................",
"...........-)*&...................................",
"...........%&*)#..................................",
"............!&*)#.................................",
".............!&**'................................",
"..............%'**-...............................",
"................#))-!!............................",
".................!-))&%...........................",
"...................+')&+..........................",
".....................!@-'>#$......................"};
